{
  "accessors": [
    {
      "bufferView": 2,
      "componentType": 5126,
      "count": 55,
      "max": [
        0.21952599287033081,
        0.03558799996972084,
        0.11967399716377258
      ],
      "min": [
        -0.027205999940633774,
        -0.053360000252723694,
        -0.12354499846696854
      ],
      "type": "VEC3"
    },
    {
      "bufferView": 2,
      "byteOffset": 660,
      "componentType": 5126,
      "count": 55,
      "max": [
        0.90627527236938477,
        -0.42268815636634827,
        0.8916199803352356
      ],
      "min": [
        -0.9025757908821106,
        -1,
        -0.8916202187538147
      ],
      "type": "VEC3"
    },
    {
      "bufferView": 3,
      "componentType": 5126,
      "count": 55,
      "max": [
        0.057107340544462204,
        0.90285319089889526,
        0.99999111890792847,
        1
      ],
      "min": [
        -0.060479696840047836,
        -0.90265685319900513,
        0.42994865775108337,
        1
      ],
      "type": "VEC4"
    },
    {
      "bufferView": 1,
      "componentType": 5126,
      "count": 55,
      "max": [
        0.65477597713470459,
        0.29315298795700073
      ],
      "min": [
        0.57340002059936523,
        0.21060100197792053
      ],
      "type": "VEC2"
    },
    {
      "bufferView": 0,
      "componentType": 5125,
      "count": 270,
      "max": [
        54
      ],
      "min": [
        0
      ],
      "type": "SCALAR"
    },
    {
      "bufferView": 2,
      "byteOffset": 1320,
      "componentType": 5126,
      "count": 55,
      "max": [
        -1.7584409713745117,
        0.11490300297737122,
        0.079860001802444458
      ],
      "min": [
        -2.0207018852233887,
        -0.010041999630630016,
        -0.18418000638484955
      ],
      "type": "VEC3"
    },
    {
      "bufferView": 2,
      "byteOffset": 1980,
      "componentType": 5126,
      "count": 55,
      "max": [
        0.66108924150466919,
        -0.43069401383399963,
        0.78705418109893799
      ],
      "min": [
        -0.90249800682067871,
        -0.99766814708709717,
        -0.78705418109893799
      ],
      "type": "VEC3"
    },
    {
      "bufferView": 3,
      "byteOffset": 880,
      "componentType": 5126,
      "count": 55,
      "max": [
        0.16913296282291412,
        0.77795344591140747,
        0.99999111890792847,
        1
      ],
      "min": [
        -0.16157852113246918,
        -0.77846300601959229,
        0.60679745674133301,
        1
      ],
      "type": "VEC4"
    },
    {
      "bufferView": 1,
      "byteOffset": 440,
      "componentType": 5126,
      "count": 55,
      "max": [
        0.78303402662277222,
        0.29736000299453735
      ],
      "min": [
        0.70015799999237061,
        0.21328699588775635
      ],
      "type": "VEC2"
    },
    {
      "bufferView": 0,
      "byteOffset": 1080,
      "componentType": 5125,
      "count": 270,
      "max": [
        54
      ],
      "min": [
        0
      ],
      "type": "SCALAR"
    },
    {
      "bufferView": 2,
      "byteOffset": 2640,
      "componentType": 5126,
      "count": 255,
      "max": [
        -1.2473139762878418,
        4.7690901756286621,
        0.19093599915504456
      ],
      "min": [
        -1.9269939661026001,
        1.332476019859314,
        -0.89411801099777222
      ],
      "type": "VEC3"
    },
    {
      "bufferView": 2,
      "byteOffset": 5700,
      "componentType": 5126,
      "count": 255,
      "max": [
        0.99976474046707153,
        0.99864053726196289,
        0.98257702589035034
      ],
      "min": [
        -0.99959826469421387,
        -0.98696249723434448,
        -0.96804434061050415
      ],
      "type": "VEC3"
    },
    {
      "bufferView": 3,
      "byteOffset": 1760,
      "componentType": 5126,
      "count": 255,
      "max": [
        0.85492682456970215,
        0.23460641503334045,
        0.99885028600692749,
        1
      ],
      "min": [
        -0.98409420251846313,
        -0.99996942281723022,
        -0.90262585878372192,
        1
      ],
      "type": "VEC4"
    },
    {
      "bufferView": 1,
      "byteOffset": 880,
      "componentType": 5126,
      "count": 255,
      "max": [
        0.97842699289321899,
        0.5
      ],
      "min": [
        0.015103000216186047,
        0.22453500330448151
      ],
      "type": "VEC2"
    },
    {
      "bufferView": 0,
      "byteOffset": 2160,
      "componentType": 5125,
      "count": 1344,
      "max": [
        254
      ],
      "min": [
        0
      ],
      "type": "SCALAR"
    },
    {
      "bufferView": 2,
      "byteOffset": 8760,
      "componentType": 5126,
      "count": 355,
      "max": [
        0.10493399947881699,
        4.9307479858398438,
        0.21859100461006165
      ],
      "min": [
        -1.5557639598846436,
        1.3501420021057129,
        -0.98602098226547241
      ],
      "type": "VEC3"
    },
    {
      "bufferView": 2,
      "byteOffset": 13020,
      "componentType": 5126,
      "count": 355,
      "max": [
        0.99873864650726318,
        0.99840474128723145,
        0.97890365123748779
      ],
      "min": [
        -0.99999266862869263,
        -0.97988766431808472,
        -0.97893321514129639
      ],
      "type": "VEC3"
    },
    {
      "bufferView": 3,
      "byteOffset": 5840,
      "componentType": 5126,
      "count": 355,
      "max": [
        0.87187165021896362,
        0.70507234334945679,
        0.97167474031448364,
        1
      ],
      "min": [
        -0.8511776328086853,
        -0.99814808368682861,
        -0.99997889995574951,
        1
      ],
      "type": "VEC4"
    },
    {
      "bufferView": 1,
      "byteOffset": 2920,
      "componentType": 5126,
      "count": 355,
      "max": [
        1,
        0.26930499076843262
      ],
      "min": [
        0,
        0
      ],
      "type": "VEC2"
    },
    {
      "bufferView": 0,
      "byteOffset": 7536,
      "componentType": 5125,
      "count": 1638,
      "max": [
        354
      ],
      "min": [
        0
      ],
      "type": "SCALAR"
    },
    {
      "bufferView": 2,
      "byteOffset": 17280,
      "componentType": 5126,
      "count": 708,
      "max": [
        -0.89569699764251709,
        1.5787889957427979,
        0.87271898984909058
      ],
      "min": [
        -2.7679541110992432,
        -0.042552001774311066,
        -1.1067620515823364
      ],
      "type": "VEC3"
    },
    {
      "bufferView": 2,
      "byteOffset": 25776,
      "componentType": 5126,
      "count": 708,
      "max": [
        0.999705970287323,
        0.99749499559402466,
        0.99726253747940063
      ],
      "min": [
        -0.99753713607788086,
        -0.99995625019073486,
        -0.99720245599746704
      ],
      "type": "VEC3"
    },
    {
      "bufferView": 3,
      "byteOffset": 11520,
      "componentType": 5126,
      "count": 708,
      "max": [
        0.46142199635505676,
        0.63826572895050049,
        0.9991377592086792,
        1
      ],
      "min": [
        -0.99883913993835449,
        -0.83922946453094482,
        -0.97694796323776245,
        1
      ],
      "type": "VEC4"
    },
    {
      "bufferView": 1,
      "byteOffset": 5760,
      "componentType": 5126,
      "count": 708,
      "max": [
        0.99926298856735229,
        0.99989801645278931
      ],
      "min": [
        0.21932800114154816,
        -0.0002280000044265762
      ],
      "type": "VEC2"
    },
    {
      "bufferView": 0,
      "byteOffset": 14088,
      "componentType": 5125,
      "count": 3600,
      "max": [
        707
      ],
      "min": [
        0
      ],
      "type": "SCALAR"
    },
    {
      "bufferView": 2,
      "byteOffset": 34272,
      "componentType": 5126,
      "count": 708,
      "max": [
        0.9993780255317688,
        1.6314209699630737,
        0.97084999084472656
      ],
      "min": [
        -0.95157897472381592,
        -0.072371996939182281,
        -0.95666897296905518
      ],
      "type": "VEC3"
    },
    {
      "bufferView": 2,
      "byteOffset": 42768,
      "componentType": 5126,
      "count": 708,
      "max": [
        0.99757188558578491,
        0.9974098801612854,
        0.99933302402496338
      ],
      "min": [
        -0.99288821220397949,
        -0.99968266487121582,
        -1
      ],
      "type": "VEC3"
    },
    {
      "bufferView": 3,
      "byteOffset": 22848,
      "componentType": 5126,
      "count": 708,
      "max": [
        0.86262589693069458,
        0.8912653923034668,
        0.95693320035934448,
        1
      ],
      "min": [
        -0.99533909559249878,
        -0.79224234819412231,
        -0.99722558259963989,
        1
      ],
      "type": "VEC4"
    },
    {
      "bufferView": 1,
      "byteOffset": 11424,
      "componentType": 5126,
      "count": 708,
      "max": [
        0.78391098976135254,
        0.86224102973937988
      ],
      "min": [
        -0.00099900003988295794,
        0.00024900000425986946
      ],
      "type": "VEC2"
    },
    {
      "bufferView": 0,
      "byteOffset": 28488,
      "componentType": 5125,
      "count": 3600,
      "max": [
        707
      ],
      "min": [
        0
      ],
      "type": "SCALAR"
    }
  ],
  "asset": {
    "extras": {
      "author": "Carissa (https://sketchfab.com/cclarke468)",
      "license": "CC-BY-SA-4.0 (http://creativecommons.org/licenses/by-sa/4.0/)",
      "source": "https://sketchfab.com/3d-models/cherries-4d406299153c455f94564b49b56bd6a9",
      "title": "Cherries"
    },
    "generator": "Sketchfab-8.44.0",
    "version": "2.0"
  },
  "bufferViews": [
    {
      "buffer": 0,
      "byteLength": 42888,
      "byteOffset": 0,
      "name": "floatBufferViews",
      "target": 34963
    },
    {
      "buffer": 0,
      "byteLength": 17088,
      "byteOffset": 42888,
      "byteStride": 8,
      "name": "floatBufferViews",
      "target": 34962
    },
    {
      "buffer": 0,
      "byteLength": 51264,
      "byteOffset": 59976,
      "byteStride": 12,
      "name": "floatBufferViews",
      "target": 34962
    },
    {
      "buffer": 0,
      "byteLength": 34176,
      "byteOffset": 111240,
      "byteStride": 16,
      "name": "floatBufferViews",
      "target": 34962
    }
  ],
  "buffers": [
    {
      "byteLength": 145416,
      "uri": "scene.bin"
    }
  ],
  "images": [
    {
      "uri": "textures/lambert2SG_baseColor.jpeg"
    },
    {
      "uri": "textures/lambert2SG_metallicRoughness.png"
    },
    {
      "uri": "textures/lambert2SG_normal.jpeg"
    },
    {
      "uri": "textures/initialShadingGroup_baseColor.jpeg"
    },
    {
      "uri": "textures/initialShadingGroup_metallicRoughness.png"
    },
    {
      "uri": "textures/initialShadingGroup_normal.jpeg"
    }
  ],
  "materials": [
    {
      "doubleSided": true,
      "emissiveFactor": [
        0,
        0,
        0
      ],
      "name": "lambert2SG",
      "normalTexture": {
        "index": 2,
        "scale": 1,
        "texCoord": 0
      },
      "occlusionTexture": {
        "index": 1,
        "strength": 1,
        "texCoord": 0
      },
      "pbrMetallicRoughness": {
        "baseColorFactor": [
          1,
          1,
          1,
          1
        ],
        "baseColorTexture": {
          "index": 0,
          "texCoord": 0
        },
        "metallicFactor": 1,
        "metallicRoughnessTexture": {
          "index": 1,
          "texCoord": 0
        },
        "roughnessFactor": 1
      }
    },
    {
      "doubleSided": true,
      "emissiveFactor": [
        0,
        0,
        0
      ],
      "name": "initialShadingGroup",
      "normalTexture": {
        "index": 5,
        "scale": 1,
        "texCoord": 0
      },
      "occlusionTexture": {
        "index": 4,
        "strength": 1,
        "texCoord": 0
      },
      "pbrMetallicRoughness": {
        "baseColorFactor": [
          1,
          1,
          1,
          1
        ],
        "baseColorTexture": {
          "index": 3,
          "texCoord": 0
        },
        "metallicFactor": 1,
        "metallicRoughnessTexture": {
          "index": 4,
          "texCoord": 0
        },
        "roughnessFactor": 1
      }
    }
  ],
  "meshes": [
    {
      "name": "defaultMaterial",
      "primitives": [
        {
          "attributes": {
            "NORMAL": 1,
            "POSITION": 0,
            "TANGENT": 2,
            "TEXCOORD_0": 3
          },
          "indices": 4,
          "material": 1,
          "mode": 4
        }
      ]
    },
    {
      "name": "defaultMaterial",
      "primitives": [
        {
          "attributes": {
            "NORMAL": 6,
            "POSITION": 5,
            "TANGENT": 7,
            "TEXCOORD_0": 8
          },
          "indices": 9,
          "material": 1,
          "mode": 4
        }
      ]
    },
    {
      "name": "defaultMaterial",
      "primitives": [
        {
          "attributes": {
            "NORMAL": 11,
            "POSITION": 10,
            "TANGENT": 12,
            "TEXCOORD_0": 13
          },
          "indices": 14,
          "material": 1,
          "mode": 4
        }
      ]
    },
    {
      "name": "defaultMaterial",
      "primitives": [
        {
          "attributes": {
            "NORMAL": 16,
            "POSITION": 15,
            "TANGENT": 17,
            "TEXCOORD_0": 18
          },
          "indices": 19,
          "material": 1,
          "mode": 4
        }
      ]
    },
    {
      "name": "defaultMaterial",
      "primitives": [
        {
          "attributes": {
            "NORMAL": 21,
            "POSITION": 20,
            "TANGENT": 22,
            "TEXCOORD_0": 23
          },
          "indices": 24,
          "material": 0,
          "mode": 4
        }
      ]
    },
    {
      "name": "defaultMaterial",
      "primitives": [
        {
          "attributes": {
            "NORMAL": 26,
            "POSITION": 25,
            "TANGENT": 27,
            "TEXCOORD_0": 28
          },
          "indices": 29,
          "material": 0,
          "mode": 4
        }
      ]
    }
  ],
  "nodes": [
    {
      "children": [
        1
      ],
      "name": "RootNode (gltf orientation matrix)",
      "rotation": [
        -0.70710678118654746,
        -0,
        -0,
        0.70710678118654757
      ]
    },
    {
      "children": [
        2
      ],
      "matrix": [
        1.5164370536804199,
        0,
        0,
        0,
        0,
        1.5164370536804199,
        0,
        0,
        0,
        0,
        1.5164370536804199,
        0,
        0,
        0,
        0,
        1
      ],
      "name": "RootNode (model correction matrix)"
    },
    {
      "children": [
        3,
        5,
        7,
        9,
        11,
        13
      ],
      "matrix": [
        1,
        0,
        0,
        0,
        0,
        -4.3711390063094768e-08,
        0.999999999999999,
        0,
        0,
        -0.999999999999999,
        -4.3711390063094768e-08,
        0,
        0,
        0,
        0,
        1
      ],
      "name": "Collada visual scene group"
    },
    {
      "children": [
        4
      ],
      "name": "group"
    },
    {
      "mesh": 0,
      "name": "defaultMaterial"
    },
    {
      "children": [
        6
      ],
      "name": "pasted__pCylinder4"
    },
    {
      "mesh": 1,
      "name": "defaultMaterial"
    },
    {
      "children": [
        8
      ],
      "name": "pCylinder2"
    },
    {
      "mesh": 2,
      "name": "defaultMaterial"
    },
    {
      "children": [
        10
      ],
      "name": "pCylinder1"
    },
    {
      "mesh": 3,
      "name": "defaultMaterial"
    },
    {
      "children": [
        12
      ],
      "name": "pSphere2"
    },
    {
      "mesh": 4,
      "name": "defaultMaterial"
    },
    {
      "children": [
        14
      ],
      "name": "pSphere1"
    },
    {
      "mesh": 5,
      "name": "defaultMaterial"
    }
  ],
  "samplers": [
    {
      "magFilter": 9729,
      "minFilter": 9987,
      "wrapS": 10497,
      "wrapT": 10497
    }
  ],
  "scene": 0,
  "scenes": [
    {
      "name": "OSG_Scene",
      "nodes": [
        0
      ]
    }
  ],
  "textures": [
    {
      "sampler": 0,
      "source": 0
    },
    {
      "sampler": 0,
      "source": 1
    },
    {
      "sampler": 0,
      "source": 2
    },
    {
      "sampler": 0,
      "source": 3
    },
    {
      "sampler": 0,
      "source": 4
    },
    {
      "sampler": 0,
      "source": 5
    }
  ]
}

